<?xml version="1.0" encoding="iso-8859-1"?>
<!-- Generator: Adobe Illustrator 16.0.0, SVG Export Plug-In . SVG Version: 6.00 Build 0)  -->
<!DOCTYPE svg PUBLIC "-//W3C//DTD SVG 1.1//EN" "http://www.w3.org/Graphics/SVG/1.1/DTD/svg11.dtd">
<svg version="1.1" id="Capa_1" xmlns="http://www.w3.org/2000/svg" xmlns:xlink="http://www.w3.org/1999/xlink" x="0px" y="0px"
	 width="310.055px" height="310.055px" viewBox="0 0 310.055 310.055" style="enable-background:new 0 0 310.055 310.055;"
	 xml:space="preserve">
<g>
	<g>
		<path d="M303.938,1.066c-2.854-1.66-59.947-5-66.606,22.9c-6.659,27.897-14.426,55.139-39.965,44.11
			c-15.7-6.781,0-48.219,0-48.219s-18.921,26.416-40.909,30.064c-27.312,4.528,0-25.956,0-25.956
			c-54.806,7.767-78.858,41.963-89.292,67.302c-3.348,1.815-6.597,3.783-9.729,5.898c-3.097,2.089-6.09,4.326-8.963,6.7
			c-1.437,1.188-2.845,2.408-4.22,3.658c-2.757,2.504-5.393,5.14-7.894,7.896c-1.253,1.378-2.473,2.784-3.658,4.221
			c-2.372,2.874-4.609,5.864-6.703,8.96c-4.184,6.193-7.786,12.806-10.732,19.768c-1.476,3.48-2.778,7.05-3.915,10.695
			c-1.134,3.646-2.094,7.369-2.869,11.159c-1.548,7.57-2.364,15.415-2.364,23.452c0,3.35,0.176,6.664,0.451,9.947
			c0.031,0.362,0.049,0.725,0.085,1.087c0.303,3.169,0.738,6.302,1.29,9.394c0.067,0.389,0.132,0.771,0.205,1.16
			c0.59,3.122,1.294,6.203,2.128,9.232c0.067,0.264,0.147,0.518,0.217,0.776c0.891,3.153,1.888,6.261,3.032,9.3l0,0l-0.026,0.777
			l0.632,0.761l0,0c2.115,5.406,4.626,10.61,7.49,15.586c0.005,0.011,0.016,0.026,0.023,0.036c2.845,4.94,6.048,9.647,9.569,14.101
			c0.044,0.052,0.085,0.108,0.127,0.16c3.485,4.386,7.28,8.513,11.348,12.35c0.106,0.099,0.208,0.197,0.313,0.301
			c2.03,1.9,4.129,3.733,6.294,5.488c0.036,0.036,0.081,0.067,0.122,0.099c2.084,1.678,4.226,3.288,6.426,4.826
			c0.186,0.124,0.365,0.264,0.551,0.389c2.206,1.527,4.472,2.982,6.783,4.354c0.249,0.15,0.508,0.29,0.756,0.435
			c2.149,1.259,4.339,2.439,6.571,3.558c0.254,0.13,0.502,0.259,0.753,0.389c2.348,1.154,4.751,2.227,7.185,3.226
			c0.43,0.171,0.856,0.337,1.292,0.508c2.245,0.885,4.513,1.714,6.82,2.459c0.277,0.089,0.546,0.192,0.823,0.275
			c2.48,0.786,5,1.476,7.55,2.097c0.557,0.135,1.118,0.259,1.675,0.389c2.403,0.543,4.832,1.03,7.291,1.424
			c0.212,0.031,0.419,0.077,0.632,0.108c2.602,0.404,5.248,0.699,7.909,0.927c0.637,0.052,1.274,0.099,1.911,0.14
			c2.698,0.187,5.414,0.321,8.155,0.321c30.126,0,57.591-11.448,78.252-30.235c2.755-2.501,5.396-5.137,7.892-7.896
			c0.942-1.035,1.844-2.092,2.739-3.158c20.169-10.568,36.169-22.437,36.708-28.169c1.258-13.318-1.129-40.068,19.677-56.136
			c20.806-16.062,16.176-58.045,16.176-58.045c-24.741,41.863-52.33-14.271-25.688-19.254c26.646-4.979,25.688-30.222,10.465-57.25
			C253.508,22.89,303.938,1.066,303.938,1.066z M194.922,276.657c-19.396,16.953-44.684,27.33-72.416,27.33
			c-29.743,0-56.752-11.848-76.61-31.048l21.406-18.403l-20.435-52.667L14.892,190.86l-0.735,23.488
			c-1.279-6.706-1.973-13.613-1.973-20.682c0-14.7,2.91-28.728,8.156-41.567l27.524-34.157l7.138-11.443
			c2.814-2.183,5.773-4.189,8.795-6.103c17.015-10.758,37.122-17.052,58.704-17.052c0.608,0,1.214,0.036,1.817,0.047l12.319,4.533
			l27.144,3.467c17.378,7.042,32.57,18.369,44.242,32.689l-4.516,19.682l17.833,50.288l11.382,2.889
			C231.801,228.728,217.297,257.088,194.922,276.657z"/>
		<polygon points="164.931,131.006 126.975,95.596 85.128,110.651 73.951,114.669 75.712,164.638 95.474,168.398 133.735,175.663 		
			"/>
		<polygon points="119.123,259.828 113.522,266.125 142.077,295.877 161.099,287.753 191.939,274.57 200.09,230.503 
			150.587,224.415 		"/>
	</g>
</g>
<g>
</g>
<g>
</g>
<g>
</g>
<g>
</g>
<g>
</g>
<g>
</g>
<g>
</g>
<g>
</g>
<g>
</g>
<g>
</g>
<g>
</g>
<g>
</g>
<g>
</g>
<g>
</g>
<g>
</g>
</svg>
